<svg width="143" height="188" viewBox="0 0 143 188" fill="none" xmlns="http://www.w3.org/2000/svg">
<path fill-rule="evenodd" clip-rule="evenodd" d="M118.603 183.664L69.6791 166.201L21.2264 183.664V3.01089H118.603V183.664ZM121.079 0H18.6328V188L69.5612 169.814L120.961 188V0H121.079Z" fill="#8FBFE7"/>
<path fill-rule="evenodd" clip-rule="evenodd" d="M69.6872 162.712L116.136 179.573V6.02539H23.8281V179.573L69.6872 162.712Z" fill="#8FBFE7"/>
<path d="M71.4412 127.662C110.897 127.662 142.882 111.971 142.882 92.6151C142.882 73.2593 110.897 57.5684 71.4412 57.5684C31.9853 57.5684 0 73.2593 0 92.6151C0 111.971 31.9853 127.662 71.4412 127.662Z" fill="#FED400"/>
<path fill-rule="evenodd" clip-rule="evenodd" d="M71.6763 124.651C33.9515 124.651 3.30021 110.319 3.30021 92.6151C3.30021 74.9111 33.9515 60.5792 71.6763 60.5792C109.401 60.5792 140.052 74.9111 140.052 92.6151C140.052 110.319 109.401 124.651 71.6763 124.651ZM143 92.6151C143 73.225 111.051 57.5684 71.5584 57.5684C32.0653 57.5684 0.117188 73.225 0.117188 92.6151C0.117188 112.005 32.0653 127.662 71.5584 127.662C111.051 127.662 143 112.005 143 92.6151Z" fill="#404851"/>
<path fill-rule="evenodd" clip-rule="evenodd" d="M71.8016 122.483C35.7274 122.483 6.37281 109.115 6.37281 92.7358C6.37281 76.3566 35.6095 62.9882 71.8016 62.9882C107.876 62.9882 137.23 76.3566 137.23 92.7358C137.23 109.115 107.994 122.483 71.8016 122.483ZM5.42969 92.7358C5.42969 109.597 35.1379 123.206 71.8016 123.206C108.465 123.206 138.174 109.597 138.174 92.7358C138.174 75.8748 108.465 62.2656 71.8016 62.2656C35.1379 62.2656 5.42969 75.8748 5.42969 92.7358Z" fill="#404851"/>
<path d="M32.8906 106.824V105.018H33.2443C34.5411 104.897 35.3663 104.657 35.6021 104.416C35.8379 104.054 35.9558 103.091 35.9558 101.405V84.1826C35.9558 82.4965 35.8379 81.4126 35.6021 81.1717C35.3663 80.8104 34.5411 80.5695 33.2443 80.4491H32.8906V78.6425H42.2039H46.3301H47.8626C52.3424 78.6425 55.7612 79.8469 58.2369 82.1352C60.5947 84.4234 61.7736 87.7956 61.7736 92.1313C61.7736 96.5874 60.5947 100.201 58.119 102.85C55.6433 105.5 52.4603 106.824 48.3342 106.824H32.8906ZM41.9681 80.4491V101.284C41.9681 102.85 42.2039 103.814 42.6755 104.175C43.147 104.536 44.3259 104.777 46.0943 104.777C49.1594 104.777 51.5172 103.693 53.0498 101.646C54.5823 99.4779 55.4076 96.3466 55.4076 92.1313C55.4076 87.9161 54.5823 84.9052 52.814 83.0987C51.0456 81.2921 48.2163 80.4491 44.0902 80.4491H41.9681ZM86.5305 106.824H64.3672V105.018H64.7209C66.0176 104.897 66.8429 104.657 67.0787 104.416C67.3144 104.054 67.4323 103.091 67.4323 101.405V84.1826C67.4323 82.4965 67.3144 81.4126 67.0787 81.1717C66.8429 80.8104 66.0176 80.5695 64.7209 80.4491H64.3672V78.6425H76.5098V80.4491H76.1562C74.8594 80.5695 74.0341 80.8104 73.7984 81.1717C73.5626 81.533 73.4447 82.4965 73.4447 84.1826V101.405C73.4447 103.573 73.6805 104.657 74.152 104.777C74.5057 104.897 75.5667 104.897 77.2172 104.897H79.6929C80.636 104.897 81.5791 104.897 82.5222 104.777C82.9938 104.777 84.0548 104.536 84.1727 104.295C84.4084 103.814 84.88 101.044 84.9979 100.201H86.4126V106.945L86.5305 106.824ZM88.7704 105.741V100.201H90.185C90.7745 103.091 90.7745 103.814 91.7176 104.536C92.8965 105.5 95.2543 105.741 96.7869 105.741C98.3194 105.741 99.4983 105.259 100.441 104.295C101.385 103.332 101.856 102.127 101.856 100.682C101.856 99.4779 101.62 98.5144 101.031 97.7918C100.441 97.0692 99.3804 96.3466 97.8479 95.3831L95.9616 94.2992C91.1282 91.6496 88.7704 88.8796 88.7704 85.8687C88.7704 83.46 89.5956 81.533 91.3639 80.0878C93.1323 78.6425 95.3722 77.9199 98.3194 77.9199C100.559 77.9199 103.153 78.2812 105.982 79.1243V84.7848H104.685C104.685 83.8213 104.096 81.6534 103.389 80.9308C102.446 79.9673 100.088 79.7265 98.6731 79.7265C97.4942 79.7265 96.4332 80.2082 95.4901 81.0512C94.6649 81.8943 94.1933 82.9782 94.1933 84.303C94.1933 85.2665 94.4291 86.1095 95.0185 86.7117C95.608 87.4343 96.669 88.1569 98.2015 89L100.088 90.0839C102.917 91.6496 104.803 93.0948 105.864 94.2992C106.925 95.5035 107.397 97.0692 107.397 98.8757C107.397 101.405 106.454 103.452 104.45 105.018C102.446 106.584 99.852 107.306 96.5511 107.306C94.1933 107.306 91.4818 106.222 88.5346 105.62L88.7704 105.741Z" fill="#404850"/>
</svg>
