<svg width="201" height="285" viewBox="0 0 201 285" fill="none" xmlns="http://www.w3.org/2000/svg">
<g filter="url(#filter0_d_257_13513)">
<g filter="url(#filter1_d_257_13513)">
<path fill-rule="evenodd" clip-rule="evenodd" d="M157.283 236.84L95.7003 214.797L34.7109 236.84V8.80066H157.283V236.84ZM160.4 5H31.4463V242.313L95.5519 219.357L160.251 242.313V5H160.4Z" fill="#8FBFE7"/>
<path fill-rule="evenodd" clip-rule="evenodd" d="M95.7013 210.388L154.168 231.671V12.6013H37.9766V231.671L95.7013 210.388Z" fill="#8FBFE7"/>
</g>
<g filter="url(#filter2_i_257_13513)">
<path d="M97.926 166.148C147.591 166.148 187.852 146.341 187.852 121.908C187.852 97.4755 147.591 77.6687 97.926 77.6687C48.2612 77.6687 8 97.4755 8 121.908C8 146.341 48.2612 166.148 97.926 166.148Z" fill="#F5D92F"/>
</g>
<path fill-rule="evenodd" clip-rule="evenodd" d="M98.2218 162.347C50.7362 162.347 12.1541 144.256 12.1541 121.908C12.1541 99.5605 50.7362 81.4694 98.2218 81.4694C145.708 81.4694 184.29 99.5605 184.29 121.908C184.29 144.256 145.708 162.347 98.2218 162.347ZM187.999 121.908C187.999 97.4322 147.785 77.6687 98.0735 77.6687C48.3619 77.6687 8.14746 97.4322 8.14746 121.908C8.14746 146.385 48.3619 166.148 98.0735 166.148C147.785 166.148 187.999 146.385 187.999 121.908Z" fill="#404851"/>
<path fill-rule="evenodd" clip-rule="evenodd" d="M98.3713 159.611C52.9631 159.611 16.0133 142.736 16.0133 122.06C16.0133 101.385 52.8147 84.5099 98.3713 84.5099C143.779 84.5099 180.729 101.385 180.729 122.06C180.729 142.736 143.928 159.611 98.3713 159.611ZM14.8262 122.06C14.8262 143.344 52.2211 160.523 98.3713 160.523C144.521 160.523 181.916 143.344 181.916 122.06C181.916 100.777 144.521 83.5977 98.3713 83.5977C52.2211 83.5977 14.8262 100.777 14.8262 122.06Z" fill="#404851"/>
<path d="M49.4023 139.848V137.567H49.8475C51.4798 137.415 52.5186 137.111 52.8154 136.807C53.1122 136.351 53.2606 135.135 53.2606 133.006V111.267C53.2606 109.138 53.1122 107.77 52.8154 107.466C52.5186 107.01 51.4798 106.706 49.8475 106.554H49.4023V104.273H61.1254H66.3191H68.2482C73.8871 104.273 78.1905 105.794 81.3068 108.682C84.2746 111.571 85.7586 115.827 85.7586 121.3C85.7586 126.925 84.2746 131.486 81.1584 134.831C78.0421 138.175 74.0355 139.848 68.8418 139.848H49.4023ZM60.8286 106.554V132.854C60.8286 134.831 61.1254 136.047 61.7189 136.503C62.3125 136.959 63.7964 137.263 66.0223 137.263C69.8805 137.263 72.8484 135.895 74.7775 133.31C76.7066 130.574 77.7454 126.621 77.7454 121.3C77.7454 115.979 76.7066 112.179 74.4807 109.898C72.2548 107.618 68.6934 106.554 63.4997 106.554H60.8286ZM116.921 139.848H89.0232V137.567H89.4684C91.1007 137.415 92.1394 137.111 92.4362 136.807C92.733 136.351 92.8814 135.135 92.8814 133.006V111.267C92.8814 109.138 92.733 107.77 92.4362 107.466C92.1394 107.01 91.1007 106.706 89.4684 106.554H89.0232V104.273H104.308V106.554H103.862C102.23 106.706 101.191 107.01 100.895 107.466C100.598 107.922 100.449 109.138 100.449 111.267V133.006C100.449 135.743 100.746 137.111 101.34 137.263C101.785 137.415 103.121 137.415 105.198 137.415H108.314C109.501 137.415 110.689 137.415 111.876 137.263C112.469 137.263 113.805 136.959 113.953 136.655C114.25 136.047 114.844 132.55 114.992 131.486H116.773V140L116.921 139.848ZM119.74 138.479V131.486H121.521C122.263 135.135 122.263 136.047 123.45 136.959C124.934 138.175 127.902 138.479 129.831 138.479C131.76 138.479 133.244 137.871 134.431 136.655C135.619 135.439 136.212 133.919 136.212 132.094C136.212 130.574 135.915 129.358 135.173 128.446C134.431 127.533 133.096 126.621 131.167 125.405L128.792 124.037C122.708 120.692 119.74 117.196 119.74 113.395C119.74 110.354 120.779 107.922 123.005 106.098C125.231 104.273 128.05 103.361 131.76 103.361C134.58 103.361 137.844 103.817 141.406 104.881V112.027H139.774C139.774 110.811 139.032 108.074 138.141 107.162C136.954 105.946 133.986 105.642 132.205 105.642C130.722 105.642 129.386 106.25 128.199 107.314C127.16 108.378 126.567 109.746 126.567 111.419C126.567 112.635 126.863 113.699 127.605 114.459C128.347 115.371 129.683 116.283 131.612 117.348L133.986 118.716C137.548 120.692 139.922 122.517 141.257 124.037C142.593 125.557 143.187 127.533 143.187 129.814C143.187 133.006 141.999 135.591 139.477 137.567C136.954 139.544 133.689 140.456 129.534 140.456C126.567 140.456 123.154 139.087 119.444 138.327L119.74 138.479Z" fill="#404850"/>
</g>
<path fill-rule="evenodd" clip-rule="evenodd" d="M77.8531 274.215C77.9505 272.767 79.8368 267.473 80.3601 265.758C81.1754 263.068 82.2707 260.16 82.8913 257.494C83.4511 258.103 85.3983 264.979 85.6538 265.794C86.1406 267.352 88.0877 272.962 88.1608 274.215H85.0819L85.1305 277.988H97.1541L97.1662 274.215C95.6207 274.215 95.3286 273.85 94.927 272.5L92.1159 263.81C90.8746 260.038 89.3534 255.961 88.3068 252.164H77.6462C76.551 255.949 75.1637 260.001 73.8859 263.798C73.2165 265.794 72.6811 267.595 71.9752 269.615C70.6122 273.534 71.1477 274.228 68.8477 274.228L68.8963 278H80.8347L80.8468 274.228H77.841L77.8531 274.215Z" fill="white"/>
<path fill-rule="evenodd" clip-rule="evenodd" d="M130.937 274.617V278.268H141.111V274.581L139.322 274.556L139.383 264.139C140.478 263.798 142.036 263.506 143.217 263.701C144.628 263.92 144.774 264.942 144.762 266.378C144.75 268.63 144.701 272.39 144.689 274.605H142.997L143.058 278.292H153.147L153.159 274.605C150.737 274.605 151.358 273.814 151.358 268.179C151.358 263.75 152.611 257.567 144.738 258.748C141.464 259.235 140.113 260.756 139.322 261.304C139.274 259.466 139.261 254.866 139.213 253.162C139.201 252.797 138.762 252.493 138.604 252.505C136.888 252.517 132.556 252.541 130.597 252.541L130.658 256.448C131.728 256.448 131.923 256.399 132.568 256.898C132.945 258.176 132.86 273.327 132.507 274.349C131.911 274.629 131.765 274.556 130.937 274.629V274.617Z" fill="white"/>
<path fill-rule="evenodd" clip-rule="evenodd" d="M159.791 266.184C159.998 264.09 160.752 262.265 162.882 262.143C165.389 262.009 165.742 264.042 165.985 266.184H159.791ZM171.486 276.442L171.522 272.463L167.932 272.5C167.421 273.242 166.971 273.656 165.73 274.033C162.821 274.909 159.864 273.741 159.754 269.64H172.253C172.569 263.518 171.157 259.417 165.62 258.444C159.815 257.421 155.495 259.904 153.84 263.944C152.197 267.936 152.769 274.24 157.114 276.832C160.716 278.986 168.127 278.755 171.498 276.442H171.486Z" fill="white"/>
<path fill-rule="evenodd" clip-rule="evenodd" d="M129.756 272.378C128.344 272.378 127.505 272.39 126.568 272.414C124.547 275.53 119.74 275.092 119.254 269.944C118.876 266.001 119.899 261.608 124.085 262.594C125.691 262.971 126.19 263.92 126.409 264.346H129.817L129.792 259.21C120.921 256.557 112.28 259.016 112.439 268.703C112.56 276.296 118.049 278.767 124.438 278.219C127.2 278.11 127.979 277.562 129.841 276.613C129.841 275.518 129.744 273.595 129.756 272.39V272.378Z" fill="white"/>
<path fill-rule="evenodd" clip-rule="evenodd" d="M97.751 262.496C99.0896 262.557 99.905 262.18 99.905 264.017C99.905 265.721 100.1 272.816 99.6981 273.972C98.9193 274.276 98.7245 274.215 97.8362 274.215L97.8848 277.988L108.935 277.951L108.947 274.228L106.477 274.203V264.309C109.373 263.384 109.848 263.421 112.805 263.47C112.805 262.411 112.78 259.6 112.78 258.529C109.056 257.665 107.438 260.184 106.501 261.072C106.209 259.904 106.306 258.565 104.858 258.565C103.179 258.565 99.3087 258.687 97.7631 258.675V262.472L97.751 262.496Z" fill="white"/>
<path fill-rule="evenodd" clip-rule="evenodd" d="M12.4054 270.65C14.7298 270.272 15.533 270.747 15.533 273.181C15.533 275.445 14.6933 276.175 12.4176 275.676V270.65H12.4054ZM13.3668 280.909V279.302L12.2715 279.29L12.2837 277.185C13.4885 278.061 16.2023 277.818 17.4192 276.881C18.3806 276.138 18.9648 274.24 18.8918 272.475C18.6727 267.157 14.1213 267.34 12.5271 269.25C12.4906 269.214 12.4662 269.153 12.4419 269.116L12.2228 268.739C11.8821 268.191 11.9429 268.216 10.6773 268.228C9.8011 268.24 8.93706 268.24 8.01217 268.228C8 268.824 8.01217 269.664 8 270.212C8.62065 270.212 8.98573 270.199 9.04658 270.492L9.02224 278.937C8.90055 279.241 8.86404 279.266 8.01217 279.266V280.897H13.3546L13.3668 280.909Z" fill="white"/>
<path fill-rule="evenodd" clip-rule="evenodd" d="M22.7864 275.992C22.1414 275.53 21.7155 273.449 24.8309 274.094C24.8309 274.885 25.0135 275.651 24.5145 276.029C24.0399 276.394 23.2489 276.43 22.7864 275.992ZM28.9564 278.134L28.9442 276.187H27.8003C27.4961 271.928 29.93 266.086 19.8414 268.861L19.8171 271.246C20.2795 271.246 20.7541 271.258 21.0827 271.234C21.4478 270.905 23.0298 269.907 24.7457 270.917C25.1595 271.283 25.1473 272.001 24.9648 272.414C22.1171 272.366 18.7218 272.232 19.1477 275.797C19.4885 278.657 23.5044 278.852 25.0013 277.148C25.8167 278.304 27.277 278.402 28.9442 278.11L28.9564 278.134Z" fill="white"/>
<path fill-rule="evenodd" clip-rule="evenodd" d="M49.912 273.729C49.6199 269.408 53.3681 269.056 53.6967 272.646C54.0861 276.881 50.1432 277.209 49.912 273.729ZM46.5654 274.094C47.5024 280.032 58.0899 279.546 56.9825 272.171C56.0698 266.037 45.4214 266.889 46.5654 274.094Z" fill="white"/>
<path fill-rule="evenodd" clip-rule="evenodd" d="M61.4734 270.212C62.0576 270.212 62.4713 270.236 63.1528 270.224L63.165 268.24C62.5444 268.24 62.1671 268.252 61.5951 268.24C61.6073 266.926 62.1184 266.889 63.3476 266.889L63.2867 265.088C62.3131 264.602 60.5729 264.723 59.6358 265.149C58.4432 265.697 58.2728 266.634 58.2728 268.228H57.3236L57.3358 270.212H58.285C58.285 271.416 58.285 272.694 58.285 273.899C58.3702 276.832 58.3824 276.077 57.2871 276.236L57.3236 277.988L62.7999 278L62.8121 276.065C60.9867 276.053 61.4856 274.739 61.4856 270.212H61.4734Z" fill="white"/>
<path fill-rule="evenodd" clip-rule="evenodd" d="M41.4541 270.224C42.0504 270.212 42.3182 270.224 43.2187 270.224V268.24C42.5251 268.24 42.3182 268.24 41.515 268.24L41.5028 265.66L38.1805 265.636V268.24H37.1826L37.1948 270.224H38.1805C38.1805 271.623 37.9858 275.712 38.3996 276.734C39.1297 278.56 42.379 278.304 43.3039 277.793V276.15C41.3446 275.724 41.4055 276.82 41.4541 270.224Z" fill="white"/>
<path fill-rule="evenodd" clip-rule="evenodd" d="M172.946 262.496C174.285 262.557 175.1 262.18 175.1 264.017C175.1 265.721 175.295 272.816 174.893 273.972C174.115 274.276 173.92 274.215 173.031 274.215L173.08 277.988L184.13 277.951L184.142 274.228L181.672 274.203V264.309C184.568 263.384 185.043 263.421 188 263.47C188 262.411 187.976 259.6 187.976 258.529C184.252 257.665 182.633 260.184 181.696 261.072C181.404 259.904 181.501 258.565 180.053 258.565C178.374 258.565 174.504 258.687 172.958 258.675V262.472L172.946 262.496Z" fill="white"/>
<path fill-rule="evenodd" clip-rule="evenodd" d="M29.0903 270.37C29.7596 270.406 30.1734 270.212 30.1734 271.137C30.1734 272.001 30.2951 275.481 30.0882 276.065C29.6988 276.223 29.5771 276.199 29.1268 276.199L29.1511 278.171L34.7126 278.158V276.284L33.4713 276.272V271.283C34.9317 270.82 35.1629 270.832 36.6598 270.857C36.6598 270.321 36.6476 268.91 36.6476 268.362C34.7735 267.924 33.9581 269.189 33.4835 269.652C33.3375 269.068 33.3862 268.386 32.656 268.386C31.8163 268.386 29.857 268.447 29.0781 268.447V270.358L29.0903 270.37Z" fill="white"/>
<defs>
<filter id="filter0_d_257_13513" x="0.835821" y="3.20896" width="188.955" height="246.269" filterUnits="userSpaceOnUse" color-interpolation-filters="sRGB">
<feFlood flood-opacity="0" result="BackgroundImageFix"/>
<feColorMatrix in="SourceAlpha" type="matrix" values="0 0 0 0 0 0 0 0 0 0 0 0 0 0 0 0 0 0 127 0" result="hardAlpha"/>
<feOffset dx="-2.68657" dy="2.68657"/>
<feGaussianBlur stdDeviation="2.23881"/>
<feComposite in2="hardAlpha" operator="out"/>
<feColorMatrix type="matrix" values="0 0 0 0 0 0 0 0 0 0 0 0 0 0 0 0 0 0 0.5 0"/>
<feBlend mode="normal" in2="BackgroundImageFix" result="effect1_dropShadow_257_13513"/>
<feBlend mode="normal" in="SourceGraphic" in2="effect1_dropShadow_257_13513" result="shape"/>
</filter>
<filter id="filter1_d_257_13513" x="26.9687" y="0.522388" width="137.908" height="246.269" filterUnits="userSpaceOnUse" color-interpolation-filters="sRGB">
<feFlood flood-opacity="0" result="BackgroundImageFix"/>
<feColorMatrix in="SourceAlpha" type="matrix" values="0 0 0 0 0 0 0 0 0 0 0 0 0 0 0 0 0 0 127 0" result="hardAlpha"/>
<feOffset/>
<feGaussianBlur stdDeviation="2.23881"/>
<feComposite in2="hardAlpha" operator="out"/>
<feColorMatrix type="matrix" values="0 0 0 0 1 0 0 0 0 1 0 0 0 0 1 0 0 0 0.5 0"/>
<feBlend mode="normal" in2="BackgroundImageFix" result="effect1_dropShadow_257_13513"/>
<feBlend mode="normal" in="SourceGraphic" in2="effect1_dropShadow_257_13513" result="shape"/>
</filter>
<filter id="filter2_i_257_13513" x="6.20896" y="77.6687" width="181.643" height="92.0615" filterUnits="userSpaceOnUse" color-interpolation-filters="sRGB">
<feFlood flood-opacity="0" result="BackgroundImageFix"/>
<feBlend mode="normal" in="SourceGraphic" in2="BackgroundImageFix" result="shape"/>
<feColorMatrix in="SourceAlpha" type="matrix" values="0 0 0 0 0 0 0 0 0 0 0 0 0 0 0 0 0 0 127 0" result="hardAlpha"/>
<feOffset dx="-1.79104" dy="3.58209"/>
<feGaussianBlur stdDeviation="8.95522"/>
<feComposite in2="hardAlpha" operator="arithmetic" k2="-1" k3="1"/>
<feColorMatrix type="matrix" values="0 0 0 0 1 0 0 0 0 1 0 0 0 0 1 0 0 0 1 0"/>
<feBlend mode="normal" in2="shape" result="effect1_innerShadow_257_13513"/>
</filter>
</defs>
</svg>
