<svg width="32" height="23" viewBox="0 0 32 23" fill="none" xmlns="http://www.w3.org/2000/svg">
<path d="M31.791 20.204V2.62156C31.791 2.60121 31.7605 2.40788 31.6994 2.04158L21.3515 10.8938L31.6689 20.8145C31.7503 20.5296 31.791 20.3261 31.791 20.204ZM30.4174 0.820579C30.2749 0.759529 30.102 0.729004 29.8985 0.729004H2.02911C1.84596 0.729004 1.66281 0.759529 1.47966 0.820579L11.8582 9.70336L13.2318 10.8023L15.9485 13.0306L18.6653 10.8023L20.0389 9.70336L30.4174 0.820579ZM30.3869 22.005L19.9778 12.0233L15.9485 15.2894L11.9192 12.0233L1.51019 22.005C1.67299 22.066 1.84596 22.0965 2.02911 22.0965H29.8985C30.0613 22.0965 30.2241 22.066 30.3869 22.005ZM10.5456 10.8938L0.228136 2.04158C0.167086 2.22473 0.13656 2.41806 0.13656 2.62156V20.204C0.13656 20.3871 0.167086 20.5906 0.228136 20.8145L10.5456 10.8938Z" fill="#F5D92F"/>
</svg>
