<svg width="26" height="35" viewBox="0 0 26 35" fill="none" xmlns="http://www.w3.org/2000/svg">
<path fill-rule="evenodd" clip-rule="evenodd" d="M8.68818 11.8457C4.01436 14.5441 11.1456 27.9132 16.26 24.9604C17.1683 26.5335 20.0937 31.6006 21.002 33.1737C18.8441 34.4196 17.0176 35.205 14.5158 33.7749C7.56964 29.8041 -0.0762798 16.5658 0.141255 8.66973C0.216809 5.92717 1.83262 4.85258 3.94618 3.63232C4.85442 5.20541 7.77995 10.2725 8.68818 11.8457Z" fill="#F5D92F"/>
<path fill-rule="evenodd" clip-rule="evenodd" d="M10.6482 11.6213C10.1432 11.9129 9.49329 11.7389 9.20167 11.2338L4.73126 3.49079C4.43964 2.98568 4.61367 2.33587 5.11872 2.04425L7.46826 0.687767C7.97332 0.396139 8.62328 0.570332 8.91486 1.07539L13.3853 8.81834C13.6768 9.32334 13.5027 9.97321 12.9977 10.2648L10.6482 11.6213Z" fill="#F5D92F"/>
<path fill-rule="evenodd" clip-rule="evenodd" d="M22.862 32.7756C22.357 33.0672 21.7072 32.8932 21.4155 32.3881L16.9451 24.6451C16.6535 24.14 16.8275 23.4901 17.3326 23.1986L19.6821 21.842C20.1872 21.5505 20.8372 21.7246 21.1287 22.2296L25.5991 29.9726C25.8907 30.4777 25.7166 31.1275 25.2116 31.4191L22.862 32.7756Z" fill="#F5D92F"/>
</svg>
