<svg width="30" height="30" viewBox="0 0 30 30" fill="none" xmlns="http://www.w3.org/2000/svg">
<path d="M15.5752 9.95118C17.9699 9.95118 19.9111 8.00991 19.9111 5.61524C19.9111 3.22056 17.9699 1.2793 15.5752 1.2793C13.1805 1.2793 11.2393 3.22056 11.2393 5.61524C11.2393 8.00991 13.1805 9.95118 15.5752 9.95118Z" fill="#F5D92F"/>
<path opacity="0.1" d="M15.2779 6.48145H11.5859L11.6043 6.56942L11.606 6.57699L11.6252 6.65834C11.8935 7.76009 12.5444 8.70701 13.442 9.30138C14.3396 9.89575 15.4144 10.0916 16.4422 9.84807V7.74239C16.4413 7.40828 16.3183 7.08813 16.1002 6.85187C15.882 6.61561 15.5864 6.48244 15.2779 6.48145Z" fill="black"/>
<path opacity="0.2" d="M14.5392 7.521H11.9297C12.2722 8.24754 12.8125 8.86139 13.4879 9.29121C14.1634 9.72103 14.9461 9.94917 15.7453 9.94912V8.7346C15.7444 8.41303 15.617 8.1049 15.391 7.87751C15.165 7.65013 14.8588 7.52196 14.5392 7.521Z" fill="black"/>
<path d="M25.1121 10.2962C26.8363 10.2962 28.234 8.82084 28.234 7.00088C28.234 5.18093 26.8363 3.70557 25.1121 3.70557C23.3879 3.70557 21.9902 5.18093 21.9902 7.00088C21.9902 8.82084 23.3879 10.2962 25.1121 10.2962Z" fill="#FDEC85"/>
<path d="M27.924 10.9907H20.8357C20.6826 10.9907 20.5359 11.0528 20.4276 11.1633C20.3194 11.2738 20.2586 11.4237 20.2586 11.5799V19.0463C20.2391 20.1269 20.5838 21.1816 21.2349 22.0337C21.8861 22.8857 22.8043 23.4835 23.8357 23.7269C24.4926 23.8676 25.1719 23.857 25.8243 23.6958C26.4766 23.5347 27.0856 23.227 27.6068 22.7952C28.128 22.3634 28.5483 21.8184 28.8372 21.1998C29.126 20.5813 29.2761 19.9047 29.2766 19.2194V12.3717C29.2766 12.0054 29.1341 11.6542 28.8804 11.3952C28.6268 11.1362 28.2827 10.9907 27.924 10.9907Z" fill="#FDEC85"/>
<path d="M23.0346 12.36V21.0321C23.0355 22.6393 22.5072 24.2017 21.5318 25.4771C20.5563 26.7525 19.1883 27.6694 17.6399 28.0855C16.0915 28.5017 14.4494 28.3939 12.9684 27.7787C11.4874 27.1636 10.2504 26.0756 9.44921 24.6836C9.274 24.3916 9.12178 24.0864 8.99394 23.7707C8.87476 23.473 8.7744 23.1682 8.69346 22.8579C8.54334 22.2609 8.46689 21.6478 8.46582 21.0321V12.36C8.46558 12.1801 8.50075 12.002 8.5693 11.8357C8.63785 11.6695 8.73845 11.5184 8.86533 11.3912C8.9922 11.264 9.14287 11.1632 9.30868 11.0945C9.4745 11.0257 9.65221 10.9905 9.83164 10.9907H21.6688C21.8482 10.9905 22.0259 11.0257 22.1917 11.0945C22.3575 11.1632 22.5082 11.264 22.6351 11.3912C22.762 11.5184 22.8626 11.6695 22.9311 11.8357C22.9997 12.002 23.0348 12.1801 23.0346 12.36Z" fill="#F5D92F"/>
<path opacity="0.2" d="M14.5392 7.521H11.9297C12.2722 8.24754 12.8125 8.86139 13.4879 9.29121C14.1634 9.72103 14.9461 9.94917 15.7453 9.94912V8.7346C15.7444 8.41303 15.617 8.1049 15.391 7.87751C15.165 7.65013 14.8588 7.52196 14.5392 7.521Z" fill="black"/>
<path opacity="0.1" d="M16.444 10.9907V22.6058C16.444 22.8821 16.3525 23.1501 16.1848 23.3653C16.0171 23.5804 15.7832 23.7297 15.522 23.7883C15.4386 23.814 15.352 23.8264 15.265 23.825H8.97997C8.86394 23.5261 8.76624 23.2199 8.68744 22.9083C8.54129 22.3088 8.46686 21.693 8.46582 21.0748V12.3658C8.46559 12.1852 8.49982 12.0063 8.56656 11.8393C8.6333 11.6724 8.73124 11.5207 8.85476 11.3929C8.97828 11.2652 9.12495 11.1639 9.28638 11.0949C9.44782 11.0259 9.62083 10.9905 9.79551 10.9907H16.444Z" fill="black"/>
<path opacity="0.2" d="M15.7501 10.9907V23.6355C15.7514 23.7263 15.7392 23.8167 15.7137 23.9037C15.6555 24.1762 15.5072 24.4203 15.2935 24.5953C15.0798 24.7703 14.8136 24.8657 14.5391 24.8657H9.4492C9.27399 24.5699 9.12177 24.2606 8.99393 23.9407C8.87475 23.6391 8.7744 23.3302 8.69346 23.0157C8.54334 22.4109 8.46689 21.7895 8.46582 21.1657V12.3782C8.46558 12.1959 8.50075 12.0154 8.5693 11.847C8.63785 11.6785 8.73845 11.5255 8.86532 11.3966C8.9922 11.2677 9.14286 11.1655 9.30867 11.0958C9.47449 11.0262 9.6522 10.9905 9.83162 10.9907H15.7501Z" fill="black"/>
<path opacity="0.2" d="M15.7502 10.9907V21.8893C15.7488 22.2182 15.6207 22.5333 15.3939 22.7659C15.1671 22.9986 14.8599 23.1299 14.5392 23.1314H8.69346C8.54334 22.5207 8.46689 21.8934 8.46582 21.2636V12.3916C8.46558 12.2075 8.50075 12.0253 8.5693 11.8552C8.63785 11.6851 8.73845 11.5306 8.86533 11.4005C8.9922 11.2703 9.14287 11.1672 9.30868 11.0969C9.4745 11.0265 9.65221 10.9905 9.83164 10.9907H15.7502Z" fill="black"/>
<path opacity="0.2" d="M9.80377 10.9907C9.628 10.9905 9.45391 11.0265 9.29148 11.0969C9.12905 11.1672 8.98146 11.2703 8.85717 11.4005C8.73289 11.5306 8.63434 11.6851 8.56719 11.8552C8.50003 12.0253 8.46559 12.2075 8.46582 12.3916V21.2636C8.46687 21.8934 8.54176 22.5207 8.68881 23.1314H13.5233C13.8375 23.1299 14.1384 22.9986 14.3606 22.7659C14.5827 22.5333 14.7082 22.2182 14.7096 21.8893V10.9907H9.80377Z" fill="black"/>
<path d="M1.35048 7.521H13.4917C13.8136 7.521 14.1224 7.64887 14.35 7.8765C14.5776 8.10412 14.7055 8.41285 14.7055 8.73476V20.876C14.7055 21.1979 14.5776 21.5066 14.35 21.7343C14.1224 21.9619 13.8136 22.0898 13.4917 22.0898H1.35048C1.02857 22.0898 0.719845 21.9619 0.492221 21.7343C0.264597 21.5066 0.136719 21.1979 0.136719 20.876L0.136719 8.73476C0.136719 8.41285 0.264597 8.10412 0.492221 7.8765C0.719845 7.64887 1.02857 7.521 1.35048 7.521Z" fill="#C4A800"/>
<path d="M10.8897 12.0768H8.28373V19.3171H6.57376V12.0768H3.95215V10.2983H10.8897V12.0768Z" fill="#FDEC85"/>
</svg>
