<svg width="30" height="30" viewBox="0 0 30 30" fill="none" xmlns="http://www.w3.org/2000/svg">
<path d="M2.97826 23.9146C-4.00867 14.4334 2.65509 0.808542 14.589 0.71407C14.5894 0.71407 14.5898 0.713974 14.5903 0.713974C14.5916 0.713974 14.5929 0.713974 14.5941 0.713877C14.5959 0.713877 14.5979 0.71378 14.5996 0.71378C14.6009 0.71378 14.6024 0.71378 14.6037 0.71378C14.6768 0.711943 14.7509 0.711943 14.816 0.71378C14.8167 0.71378 14.8173 0.71378 14.818 0.71378C14.8188 0.71378 14.8197 0.713877 14.8205 0.713877C14.8212 0.713877 14.8219 0.713877 14.8226 0.713877C14.8229 0.713877 14.8231 0.713877 14.8234 0.713877C22.9101 0.775182 29.2734 7.35958 29.2734 15.2814C29.2734 23.3266 22.753 29.8499 14.7089 29.8499C12.1216 29.8499 9.53569 29.1661 7.2313 27.7838L5.38251 29.6332C5.09434 29.9212 4.62598 29.9226 4.33665 29.6331L1.32242 26.617C1.03357 26.328 1.03367 25.8597 1.32242 25.571L2.97826 23.9146ZM19.1623 2.98419C20.3666 4.3448 21.3618 6.26827 22.0332 8.62387H25.9741C24.4167 5.99801 21.9832 4.0141 19.1623 2.98419ZM26.7292 10.1033H22.3997C22.7002 11.5229 22.8731 13.0094 22.915 14.5417H27.7741C27.6895 13.0007 27.3387 11.5128 26.7292 10.1033ZM27.7741 16.0211H22.9149C22.8731 17.5534 22.7002 19.0399 22.3996 20.4594H26.7292C27.3387 19.0502 27.6895 17.5622 27.7741 16.0211ZM25.9741 21.9389H22.0333C21.3619 24.2943 20.3669 26.2177 19.1632 27.5782C21.9835 26.5483 24.4166 24.5644 25.9741 21.9389ZM15.4484 28.2869C17.5114 27.8245 19.4003 25.4511 20.4898 21.9389H15.4484V28.2869ZM15.4484 20.4594H20.8843C21.2053 19.0481 21.391 17.5608 21.4356 16.0211H15.4484C15.4484 18.2585 15.4484 19.4376 15.4484 20.4594ZM15.4484 14.5417H21.4356C21.3911 13.002 21.2054 11.5148 20.8844 10.1033H15.4483L15.4484 14.5417ZM15.4484 8.62378H20.4897C19.4008 5.11353 17.5132 2.74062 15.4483 2.27629L15.4484 8.62378ZM2.68874 20.4594H3.42129L2.78376 19.8217C2.38143 19.4191 2.56655 18.7311 3.11534 18.5841L6.60005 17.65C6.55124 17.1139 6.51818 16.5699 6.503 16.0212H1.64375C1.72833 17.5619 2.07905 19.0498 2.68874 20.4594ZM1.64375 14.5417H6.5028C6.54466 13.0093 6.7177 11.5228 7.01815 10.1033H2.68874C2.07914 11.5126 1.72833 13.0006 1.64375 14.5417ZM3.44372 8.62387H7.38452C8.05598 6.26846 9.05099 4.34509 10.2546 2.98458C7.43411 4.01439 5.00096 5.9983 3.44372 8.62387ZM13.9694 2.27571C11.9065 2.7381 10.0176 5.1115 8.92803 8.62378H13.9694V2.27571ZM13.9694 10.1033H8.53343C8.21249 11.5146 8.02669 13.0019 7.98213 14.5417H13.9693V10.1033H13.9694ZM7.98358 16.0211C7.99576 16.438 8.01722 16.8523 8.04989 17.2613L12.6764 16.0211H7.98358ZM13.9694 28.2864V21.9389H13.9484L12.4389 27.5743C12.9343 27.9288 13.4486 28.1686 13.9694 28.2864ZM10.2842 27.6018C9.96432 27.2441 9.65856 26.8463 9.36923 26.41L8.9869 26.0276L8.31225 26.7024C8.94534 27.058 9.605 27.3579 10.2842 27.6018ZM4.85963 28.064L8.46402 24.4585C8.75267 24.1697 9.22094 24.1694 9.50988 24.4584C10.5634 25.5122 10.2871 25.2358 11.2703 26.2194L13.663 17.2883C9.94228 18.2858 5.75323 19.4086 4.73521 19.6815L6.49565 21.4422C6.7845 21.7313 6.7845 22.1996 6.49565 22.4884L2.89097 26.0941L4.85963 28.064ZM3.44082 21.9389C3.62642 22.2526 3.82479 22.5589 4.0362 22.8563L4.92681 21.9655L4.90032 21.9389H3.44082Z" fill="#F5D92F"/>
</svg>
