<svg width="30" height="30" viewBox="0 0 30 30" fill="none" xmlns="http://www.w3.org/2000/svg">
<path d="M0.136719 29.244L2.18542 21.7586C0.445775 18.7357 -0.141777 15.185 0.531287 11.7624C1.20435 8.33972 3.09256 5.2764 5.84714 3.13822C8.60172 1.00004 12.0366 -0.0685432 15.5173 0.129838C18.998 0.328219 22.2893 1.78017 24.7834 4.21749C27.2775 6.65482 28.8058 9.91286 29.0861 13.3898C29.3663 16.8668 28.3796 20.3278 26.3081 23.1335C24.2366 25.9393 21.2204 27.9002 17.8164 28.6541C14.4125 29.408 10.8509 28.904 7.78945 27.2351M3.60436 25.8162L8.14817 24.6205C10.6488 26.245 13.6645 26.8808 16.6081 26.404C19.5517 25.9272 22.2125 24.372 24.0724 22.0411C25.9323 19.7102 26.8582 16.7706 26.6698 13.7946C26.4813 10.8186 25.192 8.0192 23.053 5.94155C20.9139 3.8639 18.0782 2.6567 15.098 2.555C12.1177 2.4533 9.2063 3.46439 6.93059 5.39138C4.65488 7.31838 3.17778 10.0233 2.7869 12.9796C2.39602 15.9358 3.11935 18.9318 4.81604 21.384M12.2296 11.2601C12.3891 11.6586 12.2296 12.0572 11.3527 13.0298C10.8745 13.5081 11.0339 13.6675 11.8789 14.8632C12.7239 16.059 14.1109 17.175 15.3864 17.7729C16.6618 18.3707 16.5821 18.3309 17.1162 17.6931C18.3119 16.338 17.9931 16.0191 19.1888 16.5612L21.3411 17.5975C21.9789 17.9163 22.0108 17.9163 22.0187 18.3149C22.0267 18.7135 21.8832 19.7498 21.4607 20.1962C21.0382 20.6426 19.4678 22.1732 16.6778 21.1528C13.8877 20.1324 11.9745 19.3193 8.78589 15.0147C5.59726 10.71 8.65835 8.15911 9.07287 7.99968C9.48739 7.84025 9.63088 7.88011 10.428 7.89605C10.6406 7.89605 10.8266 8.02891 10.9861 8.29463" fill="#F5D92F"/>
</svg>
